<svg width="24" height="24" viewBox="0 0 24 24" fill="none" xmlns="http://www.w3.org/2000/svg">
<rect width="24" height="24" rx="4" fill="#4AE6C9"/>
<path d="M10.8719 13.1279L14.1027 9.89714M17.4076 7.92546L14.6805 16.7885C14.4361 17.5828 14.3138 17.9801 14.103 18.1118C13.9202 18.2261 13.6938 18.2452 13.4947 18.1626C13.2651 18.0673 13.0787 17.6952 12.7069 16.9517L10.9796 13.4971C10.9206 13.3791 10.8911 13.3203 10.8517 13.2692C10.8167 13.2238 10.7764 13.183 10.731 13.148C10.681 13.1095 10.6233 13.0806 10.5106 13.0243L7.04799 11.293C6.30445 10.9212 5.93265 10.7351 5.83738 10.5055C5.75475 10.3064 5.7736 10.0798 5.88783 9.89699C6.01956 9.68617 6.41686 9.56369 7.2114 9.31922L16.0745 6.59212C16.6991 6.39993 17.0115 6.3039 17.2225 6.38136C17.4063 6.44883 17.5512 6.59357 17.6187 6.77735C17.6961 6.98823 17.6 7.30052 17.408 7.92453L17.4076 7.92546Z" stroke="white" stroke-width="1.5" stroke-linecap="round" stroke-linejoin="round"/>
</svg>
